<svg id="Layer_1" height="512" viewBox="0 0 36 36" width="512" xmlns="http://www.w3.org/2000/svg" data-name="Layer 1"><path d="m19.07 8.4v19.2a3.18 3.18 0 0 1 -.94 2.27 3.34 3.34 0 0 1 -2.44.93 3.19 3.19 0 0 1 -2.26-.93l-4-4v-7.87h-2.1v6.4h-2.13a3.19 3.19 0 0 1 -3.2-3.21v-6.38a3.19 3.19 0 0 1 3.2-3.2h2.8l5.47-5.47a3.19 3.19 0 0 1 2.26-.93 3.34 3.34 0 0 1 2.44.93 3.18 3.18 0 0 1 .9 2.26z"/><path d="m21.2 30.8v-2.13a10.67 10.67 0 0 0 0-21.33v-2.14a12.8 12.8 0 1 1 0 25.6z"/><path d="m21.2 26.53v-2.13a6.4 6.4 0 0 0 0-12.8v-2.13a8.53 8.53 0 0 1 0 17.07z"/><path d="m21.2 22.27v-2.14a2.12 2.12 0 0 0 1.51-.62 2.14 2.14 0 0 0 0-3 2.12 2.12 0 0 0 -1.51-.62v-2.16a4.24 4.24 0 0 1 3 1.25 4.27 4.27 0 0 1 0 6 4.24 4.24 0 0 1 -3 1.29z"/></svg>