<svg id="Layer_1" height="512" viewBox="0 0 36 36" width="512" xmlns="http://www.w3.org/2000/svg" data-name="Layer 1"><path d="m19.69 8.61v18.78a3.18 3.18 0 0 1 -.91 2.21 3.11 3.11 0 0 1 -2.22.92h-.18a3.1 3.1 0 0 1 -2.21-.92l-3.87-3.87v-7.73h-2.08v6.26h-2.09a3.14 3.14 0 0 1 -3.13-3.13v-6.26a3.14 3.14 0 0 1 3.13-3.13h2.7l5.35-5.34a3.1 3.1 0 0 1 2.21-.92h.18a3.11 3.11 0 0 1 2.22.92 3.18 3.18 0 0 1 .9 2.21z"/><path d="m31.44 23.91-3.86-4.34-3.85 4.34-1.56-1.39 4.02-4.52-4.02-4.52 1.56-1.39 3.85 4.34 3.86-4.34 1.56 1.39-4.02 4.52 4.02 4.52z"/></svg>